HIERARCHY
ROOT Haolin_28_06:Solving:Hips
{
	OFFSET 0.000000 0.000000 0.000000
	CHANNELS 6 Xposition Yposition Zposition Xrotation Yrotation Zrotation
	JOINT Haolin_28_06:Solving:Spine
	{
		OFFSET 0.000000 -12.181966 2.015561
		CHANNELS 6 Xposition Yposition Zposition Xrotation Yrotation Zrotation
		JOINT Haolin_28_06:Solving:Spine1
		{
			OFFSET 0.000000 -8.890296 1.567602
			CHANNELS 6 Xposition Yposition Zposition Xrotation Yrotation Zrotation
			JOINT Haolin_28_06:Solving:Spine2
			{
				OFFSET 0.000000 -8.993092 0.786796
				CHANNELS 6 Xposition Yposition Zposition Xrotation Yrotation Zrotation
				JOINT Haolin_28_06:Solving:Spine3
				{
					OFFSET 0.000000 -9.027443 0.000000
					CHANNELS 6 Xposition Yposition Zposition Xrotation Yrotation Zrotation
					JOINT Haolin_28_06:Solving:Neck
					{
						OFFSET 0.000000 -11.606712 -1.160669
						CHANNELS 6 Xposition Yposition Zposition Xrotation Yrotation Zrotation
						JOINT Haolin_28_06:Solving:Neck1
						{
							OFFSET 0.000000 -7.471592 -0.653680
							CHANNELS 6 Xposition Yposition Zposition Xrotation Yrotation Zrotation
							JOINT Haolin_28_06:Solving:Head
							{
								OFFSET 0.000000 -7.386181 -1.302382
								CHANNELS 6 Xposition Yposition Zposition Xrotation Yrotation Zrotation
								JOINT Haolin_28_06:Solving:HeadEnd
								{
									OFFSET 0.000000 -9.728081 0.000002
									CHANNELS 6 Xposition Yposition Zposition Xrotation Yrotation Zrotation
									End Site
									{
										OFFSET 0.000000 -9.728081 0.000002
									}
								}
							}
						}
					}
					JOINT Haolin_28_06:Solving:RightShoulder
					{
						OFFSET 0.000000 -8.290508 -5.270916
						CHANNELS 6 Xposition Yposition Zposition Xrotation Yrotation Zrotation
						JOINT Haolin_28_06:Solving:RightArm
						{
							OFFSET -19.261074 -0.000008 0.000000
							CHANNELS 6 Xposition Yposition Zposition Xrotation Yrotation Zrotation
							JOINT Haolin_28_06:Solving:RightForeArm
							{
								OFFSET -30.691700 -0.000011 0.000000
								CHANNELS 6 Xposition Yposition Zposition Xrotation Yrotation Zrotation
								JOINT Haolin_28_06:Solving:RightHand
								{
									OFFSET -20.216934 -0.000008 0.000000
									CHANNELS 6 Xposition Yposition Zposition Xrotation Yrotation Zrotation
									JOINT Haolin_28_06:Solving:RightHandThumb1
									{
										OFFSET -4.948814 2.881329 -3.679893
										CHANNELS 6 Xposition Yposition Zposition Xrotation Yrotation Zrotation
										End Site
										{
											OFFSET -7.039886 -0.000004 -7.104978
										}
									}
									JOINT Haolin_28_06:Solving:RightHandMiddle1
									{
										OFFSET -13.196846 -0.000004 0.084595
										CHANNELS 6 Xposition Yposition Zposition Xrotation Yrotation Zrotation
										End Site
										{
											OFFSET -10.002037 -0.000004 0.000000
										}
									}
								}
							}
						}
					}
					JOINT Haolin_28_06:Solving:LeftShoulder
					{
						OFFSET 0.000000 -8.290508 -5.270916
						CHANNELS 6 Xposition Yposition Zposition Xrotation Yrotation Zrotation
						JOINT Haolin_28_06:Solving:LeftArm
						{
							OFFSET 19.261074 -0.000008 0.000000
							CHANNELS 6 Xposition Yposition Zposition Xrotation Yrotation Zrotation
							JOINT Haolin_28_06:Solving:LeftForeArm
							{
								OFFSET 30.691700 -0.000011 0.000000
								CHANNELS 6 Xposition Yposition Zposition Xrotation Yrotation Zrotation
								JOINT Haolin_28_06:Solving:LeftHand
								{
									OFFSET 20.216934 -0.000008 0.000000
									CHANNELS 6 Xposition Yposition Zposition Xrotation Yrotation Zrotation
									JOINT Haolin_28_06:Solving:LeftHandThumb1
									{
										OFFSET 4.948814 2.881329 -3.679893
										CHANNELS 6 Xposition Yposition Zposition Xrotation Yrotation Zrotation
										End Site
										{
											OFFSET 7.039886 -0.000004 -7.104978
										}
									}
									JOINT Haolin_28_06:Solving:LeftHandMiddle1
									{
										OFFSET 13.196846 -0.000004 0.084595
										CHANNELS 6 Xposition Yposition Zposition Xrotation Yrotation Zrotation
										End Site
										{
											OFFSET 10.002037 -0.000004 0.000000
										}
									}
								}
							}
						}
					}
				}
			}
		}
	}
	JOINT Haolin_28_06:Solving:RightUpLeg
	{
		OFFSET -10.083070 0.000000 0.000000
		CHANNELS 6 Xposition Yposition Zposition Xrotation Yrotation Zrotation
		JOINT Haolin_28_06:Solving:RightLeg
		{
			OFFSET 0.000000 47.042522 -0.000008
			CHANNELS 6 Xposition Yposition Zposition Xrotation Yrotation Zrotation
			JOINT Haolin_28_06:Solving:RightFoot
			{
				OFFSET 0.000000 38.766415 -0.000006
				CHANNELS 6 Xposition Yposition Zposition Xrotation Yrotation Zrotation
				JOINT Haolin_28_06:Solving:RightForeFoot
				{
					OFFSET 0.000000 3.531212 -0.000000
					CHANNELS 6 Xposition Yposition Zposition Xrotation Yrotation Zrotation
					JOINT Haolin_28_06:Solving:RightToeBase
					{
						OFFSET 0.000000 0.000000 -13.829352
						CHANNELS 6 Xposition Yposition Zposition Xrotation Yrotation Zrotation
						JOINT Haolin_28_06:Solving:RightToeBaseEnd
						{
							OFFSET 0.000000 0.000000 -4.034167
							CHANNELS 6 Xposition Yposition Zposition Xrotation Yrotation Zrotation
							End Site
							{
								OFFSET 0.000000 -4.034164 0.000004
							}
						}
					}
				}
			}
		}
	}
	JOINT Haolin_28_06:Solving:LeftUpLeg
	{
		OFFSET 10.083070 0.000000 0.000000
		CHANNELS 6 Xposition Yposition Zposition Xrotation Yrotation Zrotation
		JOINT Haolin_28_06:Solving:LeftLeg
		{
			OFFSET 0.000000 47.042522 -0.000008
			CHANNELS 6 Xposition Yposition Zposition Xrotation Yrotation Zrotation
			JOINT Haolin_28_06:Solving:LeftFoot
			{
				OFFSET 0.000000 38.766415 -0.000006
				CHANNELS 6 Xposition Yposition Zposition Xrotation Yrotation Zrotation
				JOINT Haolin_28_06:Solving:LeftForeFoot
				{
					OFFSET 0.000000 3.531212 -0.000000
					CHANNELS 6 Xposition Yposition Zposition Xrotation Yrotation Zrotation
					JOINT Haolin_28_06:Solving:LeftToeBase
					{
						OFFSET 0.000000 0.000000 -13.829352
						CHANNELS 6 Xposition Yposition Zposition Xrotation Yrotation Zrotation
						JOINT Haolin_28_06:Solving:LeftToeBaseEnd
						{
							OFFSET 0.000000 0.000000 -4.855067
							CHANNELS 6 Xposition Yposition Zposition Xrotation Yrotation Zrotation
							End Site
							{
								OFFSET 0.000000 -4.855064 0.000004
							}
						}
					}
				}
			}
		}
	}
}
MOTION
Frames: 4
Frame Time: 0.041667
-57.273388 -177.071396 -76.500854 122.370188 2.824474 -3.140750 -0.000005 -12.181965 2.015537 25.784109 -0.205413 -1.535925 0.000003 -8.890270 1.567589 12.597422 0.022885 -1.109955 0.000003 -8.993137 0.786808 14.352302 1.234669 3.782178 0.000003 -9.027423 -0.000005 -3.515207 0.008690 4.382573 -0.000008 -11.606725 -1.160677 -14.341278 0.493422 4.559830 -0.000001 -7.471607 -0.653646 -13.219791 2.123900 -0.813828 -0.000006 -7.386185 -1.302400 -6.195916 0.260168 -0.601299 -0.000005 -9.728104 -0.000018 0.000002 0.000000 0.000000 -0.000010 -8.290470 -5.270924 -0.000008 16.877281 20.664929 -19.261055 -0.000018 0.000010 -94.421355 -46.142019 -101.848673 -30.691696 -0.000003 -0.000010 -36.647247 -6.403713 -4.743227 -20.216919 -0.000031 -0.000019 4.564627 -16.339291 15.843310 -4.948823 2.881299 -3.679895 -0.000001 -0.000000 0.000008 -13.196868 -0.000028 0.084578 0.000006 0.000005 0.000002 -0.000007 -8.290478 -5.270924 -0.000002 -8.833082 -18.802660 19.261066 0.000001 -0.000009 95.565049 124.514472 -92.296797 30.691692 -0.000007 0.000008 -36.392290 2.519206 1.855542 20.216923 0.000004 0.000007 2.571658 7.439898 -19.129780 4.948801 2.881318 -3.679868 -0.000000 0.000005 -0.000008 13.196837 -0.000019 0.084616 -0.000001 0.000002 -0.000001 -10.083062 -0.000004 -0.000008 -79.938424 7.442010 22.528245 0.000022 47.042484 0.000023 59.348101 -0.000003 0.000000 -0.000028 38.766407 -0.000006 -6.508048 5.585199 -4.706123 -0.000004 3.531204 0.000009 0.000000 -0.000004 0.000001 0.000010 -0.000013 -13.829361 -2.092938 -0.000004 -0.000001 -0.000008 0.000000 -4.034193 0.000000 -0.000000 0.000000 10.083060 0.000021 0.000014 -75.932244 -5.845492 -16.391271 -0.000014 47.042549 -0.000003 68.443625 -0.000003 -0.000002 0.000006 38.766396 0.000009 -15.825043 -10.697956 7.528799 -0.000000 3.531204 0.000009 -0.000000 -0.000001 0.000000 -0.000013 0.000010 -13.829336 2.552744 0.000004 -0.000000 -0.000007 -0.000001 -4.855068 -0.000002 0.000007 -0.000000 
-57.690933 -177.086212 -76.593567 122.571515 2.715440 -3.233256 0.000003 -12.181986 2.015545 25.765789 -0.167781 -1.509933 -0.000001 -8.890268 1.567596 12.533938 0.012949 -1.087937 -0.000012 -8.993107 0.786800 14.183798 1.259709 3.821349 -0.000005 -9.027478 0.000000 -3.483966 0.038205 4.350119 -0.000005 -11.606776 -1.160688 -14.324691 0.516009 4.505774 0.000000 -7.471608 -0.653704 -13.209777 2.214312 -0.763718 -0.000006 -7.386201 -1.302393 -6.196920 0.265946 -0.594296 -0.000001 -9.728104 0.000001 0.000008 -0.000000 0.000000 0.000007 -8.290543 -5.270935 -0.000008 16.838455 20.718901 -19.261055 0.000023 0.000001 -94.514040 -45.881147 -102.094225 -30.691710 -0.000006 0.000011 -36.638234 -6.431628 -4.762165 -20.216915 -0.000009 0.000016 4.598809 -16.415195 15.888304 -4.948811 2.881335 -3.679844 -0.000003 -0.000005 0.000004 -13.196851 -0.000007 0.084621 -0.000003 -0.000003 0.000003 0.000006 -8.290546 -5.270936 -0.000003 -8.819009 -18.903363 19.261063 0.000008 -0.000012 96.171399 124.683273 -92.648668 30.691702 0.000009 0.000002 -36.302326 2.573099 1.888962 20.216902 -0.000020 0.000033 2.516695 7.424675 -18.784916 4.948822 2.881335 -3.679875 -0.000009 -0.000005 -0.000001 13.196876 0.000001 0.084602 0.000001 0.000007 -0.000001 -10.083074 -0.000006 -0.000002 -80.170295 7.541986 22.390472 -0.000034 47.042465 0.000001 59.509082 0.000002 -0.000004 0.000036 38.766418 0.000010 -6.652591 5.679663 -4.518641 -0.000000 3.531219 -0.000017 -0.000001 -0.000003 0.000000 -0.000003 -0.000011 -13.829371 -2.317993 -0.000005 -0.000000 -0.000044 -0.000008 -4.034177 0.000000 0.000003 0.000000 10.083082 -0.000031 -0.000038 -75.931049 -5.520474 -16.314264 -0.000007 47.042519 0.000035 68.077534 -0.000003 -0.000003 -0.000000 38.766411 -0.000041 -15.279695 -10.944258 7.729272 0.000008 3.531204 0.000027 0.000000 0.000003 0.000000 -0.000012 0.000004 -13.829347 2.515795 0.000001 0.000000 0.000006 -0.000000 -4.855089 -0.000001 0.000002 -0.000000 
-58.091358 -177.105164 -76.721672 122.767733 2.562066 -3.385410 0.000011 -12.181969 2.015583 25.756742 -0.190878 -1.453525 -0.000002 -8.890290 1.567600 12.505236 0.005830 -1.067173 0.000001 -8.993073 0.786766 14.019988 1.327279 3.825612 0.000005 -9.027429 -0.000008 -3.455616 0.068547 4.312995 -0.000001 -11.606693 -1.160675 -14.338901 0.523502 4.531658 -0.000007 -7.471587 -0.653703 -13.186447 2.292174 -0.786215 0.000001 -7.386185 -1.302373 -6.186815 0.274582 -0.611953 0.000000 -9.728081 -0.000021 -0.000002 -0.000000 -0.000000 0.000002 -8.290478 -5.270933 -0.000009 16.797655 20.752449 -19.261061 0.000004 0.000006 -94.522906 -45.784172 -102.191337 -30.691692 -0.000004 0.000001 -36.719398 -6.479973 -4.811782 -20.216934 -0.000014 -0.000014 4.591307 -16.513905 15.775961 -4.948839 2.881318 -3.679878 -0.000001 0.000007 -0.000001 -13.196883 -0.000016 0.084600 0.000001 -0.000000 0.000001 -0.000001 -8.290482 -5.270934 -0.000005 -8.790634 -18.995951 19.261074 -0.000013 0.000004 96.478710 124.829453 -92.783202 30.691696 -0.000020 0.000016 -36.016346 2.576258 1.871580 20.216908 0.000001 -0.000021 2.451080 7.295498 -18.628282 4.948808 2.881335 -3.679889 -0.000000 -0.000002 0.000002 13.196862 0.000021 0.084591 0.000001 0.000003 0.000001 -10.083081 0.000001 0.000029 -80.416359 7.567439 22.318246 -0.000006 47.042534 0.000012 59.654995 -0.000002 -0.000006 0.000032 38.766403 -0.000010 -6.712553 5.730084 -4.134027 0.000007 3.531212 0.000026 -0.000000 -0.000000 0.000000 -0.000004 -0.000003 -13.829373 -2.321664 0.000000 0.000000 -0.000008 0.000008 -4.034172 0.000000 0.000003 -0.000000 10.083078 0.000016 0.000043 -75.916562 -5.214057 -16.131290 0.000008 47.042519 0.000008 67.690037 -0.000001 -0.000003 -0.000003 38.766422 0.000013 -14.691558 -11.209728 7.911578 -0.000011 3.531204 -0.000043 -0.000002 -0.000002 0.000001 -0.000006 0.000016 -13.829394 2.403969 -0.000000 -0.000000 0.000002 -0.000000 -4.855046 -0.000001 -0.000001 0.000000 
-58.520020 -177.137253 -76.851814 123.005341 2.455116 -3.398085 0.000001 -12.181946 2.015562 25.762329 -0.185117 -1.439266 0.000005 -8.890318 1.567561 12.418726 0.005355 -1.053127 0.000002 -8.993088 0.786773 13.882145 1.291367 3.779422 -0.000003 -9.027448 -0.000010 -3.421687 0.061831 4.306732 0.000006 -11.606716 -1.160675 -14.353188 0.531201 4.557598 -0.000002 -7.471601 -0.653735 -13.221094 2.362570 -0.778920 -0.000005 -7.386190 -1.302402 -6.216028 0.282555 -0.619785 0.000001 -9.728111 0.000065 0.000005 0.000000 -0.000000 0.000014 -8.290493 -5.270907 -0.000011 16.769270 20.813625 -19.261078 -0.000006 -0.000007 -94.544913 -45.610190 -102.276291 -30.691698 -0.000023 0.000019 -36.554483 -6.564152 -4.844656 -20.216917 -0.000006 0.000006 4.557302 -16.444551 15.725448 -4.948811 2.881323 -3.679869 -0.000004 -0.000000 0.000005 -13.196854 -0.000007 0.084591 -0.000006 -0.000001 0.000000 0.000012 -8.290512 -5.270910 -0.000005 -8.759716 -19.025159 19.261072 0.000011 -0.000005 96.648611 124.887414 -92.830460 30.691700 -0.000040 -0.000007 -35.878615 2.489973 1.799858 20.216927 -0.000005 0.000006 2.419151 7.283541 -18.429821 4.948797 2.881306 -3.679864 -0.000007 -0.000002 -0.000003 13.196845 -0.000037 0.084592 -0.000003 0.000000 -0.000002 -10.083067 0.000006 0.000003 -80.605029 7.701028 22.127583 0.000005 47.042473 0.000008 59.704234 0.000004 -0.000004 0.000031 38.766422 -0.000009 -6.815119 5.838985 -3.963524 0.000013 3.531204 -0.000027 -0.000000 -0.000004 0.000001 -0.000026 0.000024 -13.829360 -2.360558 0.000005 0.000000 0.000004 -0.000007 -4.034200 0.000000 0.000000 0.000000 10.083075 -0.000002 0.000017 -75.990110 -4.777185 -16.071413 -0.000001 47.042542 0.000004 67.356880 0.000000 -0.000002 -0.000009 38.766418 -0.000009 -14.040710 -11.354955 8.260572 -0.000007 3.531212 0.000032 -0.000001 0.000001 -0.000000 0.000006 0.000019 -13.829329 2.411451 0.000004 -0.000000 -0.000005 -0.000008 -4.855103 -0.000000 -0.000001 0.000000 
